<svg xmlns="http://www.w3.org/2000/svg" version="1.1" xmlns:xlink="http://www.w3.org/1999/xlink" xmlns:svgjs="http://svgjs.dev/svgjs" width="1500" height="458" viewBox="0 0 1500 458"><g transform="matrix(1,0,0,1,3.782125684614016,-0.22463918701387797)"><svg viewBox="0 0 396 121" data-background-color="#293040" preserveAspectRatio="xMidYMid meet" height="458" width="1500" xmlns="http://www.w3.org/2000/svg" xmlns:xlink="http://www.w3.org/1999/xlink"><g id="tight-bounds" transform="matrix(1,0,0,1,0.2400000000000091,0.05934790748619889)"><svg viewBox="0 0 395.52 120.88130418502762" height="120.88130418502762" width="395.52"><g><svg viewBox="0 0 689.7150070888136 210.79502824858758" height="120.88130418502762" width="395.52"><g transform="matrix(1,0,0,1,294.1950070888136,0)"><svg viewBox="0 0 395.52000000000004 210.79502824858758" height="210.79502824858758" width="395.52000000000004"><g id="textblocktransform"><svg viewBox="0 0 395.52000000000004 210.79502824858758" height="210.79502824858758" width="395.52000000000004" id="textblock"><g><svg viewBox="0 0 395.52000000000004 210.79502824858758" height="210.79502824858758" width="395.52000000000004"><g transform="matrix(1,0,0,1,0,0)"><svg width="395.52000000000004" viewBox="1.0499999999999998 -36.5 79.65 42.45" height="210.79502824858758" data-palette-color="#dee0e4"><path d="M21 5.95L21 5.95 12.9 5.95Q11.65 5.95 11.13 5.4 10.6 4.85 10.6 3.65L10.6 3.65 10.6-2.6 3.05-12.7Q1.85-14.3 1.45-15.5 1.05-16.7 1.05-19.15L1.05-19.15 1.05-28.75Q1.05-29.4 1.23-29.85 1.4-30.3 1.75-30.6L1.75-30.6 8.2-36.05Q8.45-36.25 8.88-36.38 9.3-36.5 9.8-36.5L9.8-36.5 17.5-36.5Q18.7-36.5 19.25-35.95 19.8-35.4 19.8-34.2L19.8-34.2 19.8-26Q19.8-25.55 19.85-25.1 19.9-24.65 20.15-24.15L20.15-24.15 20.75-23.3 20.75-28.75Q20.75-29.4 20.93-29.85 21.1-30.3 21.45-30.6L21.45-30.6 27.9-36.05Q28.15-36.25 28.58-36.38 29-36.5 29.5-36.5L29.5-36.5 36.95-36.5Q38.15-36.5 38.7-35.95 39.25-35.4 39.25-34.2L39.25-34.2 39.25-24.6Q39.25-22.15 38.85-20.95 38.45-19.75 37.25-18.15L37.25-18.15 29.75-8 29.75-1.8Q29.75-1.15 29.58-0.7 29.4-0.25 29.05 0.05L29.05 0.05 22.55 5.45Q22.35 5.65 21.93 5.8 21.5 5.95 21 5.95ZM19.35 0L27.45 0Q28.4 0 28.83-0.43 29.25-0.85 29.25-1.8L29.25-1.8 29.25-8.15 36.85-18.45Q37.95-20 38.35-21.15 38.75-22.3 38.75-24.6L38.75-24.6 38.75-34.2Q38.75-35.15 38.33-35.58 37.9-36 36.95-36L36.95-36 29.5-36Q28.55-36 28.13-35.58 27.7-35.15 27.7-34.2L27.7-34.2 27.7-26Q27.7-25.5 27.65-24.95 27.6-24.4 27.25-23.9L27.25-23.9 24.95-20.3Q24.7-19.85 24.43-19.65 24.15-19.45 23.75-19.45L23.75-19.45 23.25-19.45Q22.85-19.45 22.58-19.65 22.3-19.85 22.05-20.3L22.05-20.3 19.75-23.9Q19.4-24.4 19.35-24.95 19.3-25.5 19.3-26L19.3-26 19.3-34.2Q19.3-35.15 18.88-35.58 18.45-36 17.5-36L17.5-36 9.8-36Q8.85-36 8.43-35.58 8-35.15 8-34.2L8-34.2 8-24.6Q8-22.3 8.38-21.15 8.75-20 9.9-18.45L9.9-18.45 17.55-8.2 17.55-1.8Q17.55-0.85 17.98-0.43 18.4 0 19.35 0L19.35 0ZM24-13.05L24-13.05 23.65-13.05 23.65-4.5 23.15-4.5 23.15-13.05 22.65-13.05Q21.55-13.05 20.68-13.55 19.8-14.05 19-15.15L19-15.15 14.15-21.9Q13.6-22.65 13.5-23.65 13.4-24.65 13.4-25.75L13.4-25.75 13.4-31.5 13.9-31.5 13.9-25.75Q13.9-24.7 14-23.78 14.1-22.85 14.6-22.1L14.6-22.1 19.45-15.35Q20.1-14.35 20.95-13.95 21.8-13.55 22.65-13.55L22.65-13.55 24-13.55Q24.95-13.55 25.73-13.98 26.5-14.4 27.25-15.35L27.25-15.35 32.25-22.1Q32.75-22.75 32.85-23.73 32.95-24.7 32.95-25.75L32.95-25.75 32.95-31.5 33.45-31.5 33.45-25.75Q33.45-24.65 33.38-23.68 33.3-22.7 32.7-21.9L32.7-21.9 27.7-15.15Q26.9-14.05 26.03-13.55 25.15-13.05 24-13.05ZM56.05-31.1L56.05-31.1 74.45-10.4 74.45-31.5 74.95-31.5 74.95-4.5 74.45-4.5 74.45-9.65 55.55-30.85Q55.5-30.9 55.42-30.95 55.35-31 55.3-31L55.3-31Q55.25-31 55.22-30.95 55.2-30.9 55.2-30.85L55.2-30.85 55.2-4.5 54.7-4.5 54.7-30.95Q54.7-31.25 54.9-31.4 55.1-31.55 55.3-31.55L55.3-31.55Q55.5-31.55 55.65-31.45 55.8-31.35 56.05-31.1ZM51.25 0L58.75 0Q59.7 0 60.12-0.43 60.55-0.85 60.55-1.8L60.55-1.8 60.55-18.3 69.1-7.95 69.1-1.8Q69.1-0.85 69.52-0.43 69.95 0 70.9 0L70.9 0 78.4 0Q79.35 0 79.77-0.43 80.2-0.85 80.2-1.8L80.2-1.8 80.2-34.2Q80.2-35.15 79.77-35.58 79.35-36 78.4-36L78.4-36 70.9-36Q69.95-36 69.52-35.58 69.1-35.15 69.1-34.2L69.1-34.2 69.1-23.55 59.4-34.65Q58.75-35.4 58.07-35.7 57.4-36 56.45-36L56.45-36 51.25-36Q50.3-36 49.87-35.58 49.45-35.15 49.45-34.2L49.45-34.2 49.45-1.8Q49.45-0.85 49.87-0.43 50.3 0 51.25 0L51.25 0ZM60.35 0.05L60.35 0.05 53.85 5.45Q53.65 5.65 53.22 5.8 52.8 5.95 52.3 5.95L52.3 5.95 44.8 5.95Q43.6 5.95 43.05 5.4 42.5 4.85 42.5 3.65L42.5 3.65 42.5-28.75Q42.5-29.4 42.67-29.85 42.85-30.3 43.2-30.6L43.2-30.6 49.65-36.05Q49.9-36.25 50.32-36.38 50.75-36.5 51.25-36.5L51.25-36.5 56.45-36.5Q57.55-36.5 58.3-36.15 59.05-35.8 59.8-35L59.8-35 63.25-31 69.3-36.05Q69.55-36.25 69.97-36.38 70.4-36.5 70.9-36.5L70.9-36.5 78.4-36.5Q79.6-36.5 80.15-35.95 80.7-35.4 80.7-34.2L80.7-34.2 80.7-1.8Q80.7-1.15 80.52-0.7 80.35-0.25 80 0.05L80 0.05 73.5 5.45Q73.3 5.65 72.87 5.8 72.45 5.95 71.95 5.95L71.95 5.95 64.45 5.95Q63.25 5.95 62.7 5.4 62.15 4.85 62.15 3.65L62.15 3.65 62.15-2.3 61.05-3.65 61.05-1.8Q61.05-1.15 60.87-0.7 60.7-0.25 60.35 0.05Z" opacity="1" transform="matrix(1,0,0,1,0,0)" fill="#dee0e4" class="wordmark-text-0" data-fill-palette-color="primary" id="text-0"></path></svg></g></svg></g></svg></g></svg></g><g transform="matrix(1,0,0,1,0,6.071308348844653)"><svg viewBox="0 0 244.43136000000004 198.65241155089828" height="198.65241155089828" width="244.43136000000004"><g><svg xmlns="http://www.w3.org/2000/svg" xmlns:xlink="http://www.w3.org/1999/xlink" version="1.1" x="0" y="0" viewBox="6.670875787636914 14.527160612398298 88.2155046952022 71.69383970977171" enable-background="new 0 0 100 100" xml:space="preserve" height="198.65241155089828" width="244.43136000000004" class="icon-icon-0" data-fill-palette-color="accent" id="icon-0"><g fill="#8f6449" data-fill-palette-color="accent"><path fill="#8f6449" d="M67.539 22.815H20.016A1.885 1.885 0 0 1 20.016 19.045H67.539A1.886 1.886 0 0 1 67.539 22.815" data-fill-palette-color="accent"></path></g><g fill="#8f6449" data-fill-palette-color="accent"><path fill="#8f6449" d="M38.493 34.586H20.016A1.885 1.885 0 0 1 20.016 30.815H38.493A1.885 1.885 0 1 1 38.493 34.586" data-fill-palette-color="accent"></path></g><g fill="#8f6449" data-fill-palette-color="accent"><path fill="#8f6449" d="M54.605 58.169H20.015A1.884 1.884 0 0 1 20.015 54.399H54.605A1.886 1.886 0 1 1 54.605 58.169" data-fill-palette-color="accent"></path></g><g fill="#8f6449" data-fill-palette-color="accent"><path fill="#8f6449" d="M83.118 58.169H63.503A1.884 1.884 0 0 1 63.503 54.399H83.118A1.886 1.886 0 0 1 83.118 58.169" data-fill-palette-color="accent"></path></g><g fill="#8f6449" data-fill-palette-color="accent"><path fill="#8f6449" d="M82.701 46.36H20.016A1.885 1.885 0 0 1 20.016 42.591H82.702A1.885 1.885 0 1 1 82.701 46.36" data-fill-palette-color="accent"></path></g><g fill="#8f6449" data-fill-palette-color="accent"><path fill="#8f6449" d="M12.909 27.367C12.413 27.367 11.918 27.173 11.548 26.785L7.193 22.233A1.886 1.886 0 0 1 7.188 19.633L11.485 15.098A1.886 1.886 0 0 1 14.223 17.692L11.159 20.924 14.274 24.178A1.89 1.89 0 0 1 14.214 26.844 1.9 1.9 0 0 1 12.909 27.367" data-fill-palette-color="accent"></path></g><g fill="#8f6449" data-fill-palette-color="accent"><path fill="#8f6449" d="M12.909 74.438C12.413 74.438 11.918 74.245 11.548 73.857L7.193 69.305A1.89 1.89 0 0 1 7.188 66.703L11.485 62.172A1.885 1.885 0 0 1 14.223 64.764L11.159 67.994 14.274 71.248A1.886 1.886 0 0 1 12.909 74.438" data-fill-palette-color="accent"></path></g><g fill="#8f6449" data-fill-palette-color="accent"><path fill="#8f6449" d="M71.189 86.221A1.885 1.885 0 0 1 69.821 83.038L72.884 79.809 69.771 76.551A1.885 1.885 0 1 1 72.496 73.947L76.85 78.502C77.544 79.228 77.546 80.371 76.856 81.101L72.557 85.635C72.187 86.022 71.688 86.221 71.189 86.221" data-fill-palette-color="accent"></path></g><g fill="#8f6449" data-fill-palette-color="accent"><path fill="#8f6449" d="M88.704 62.324A1.885 1.885 0 0 1 87.335 59.142L90.398 55.91 87.286 52.657A1.886 1.886 0 0 1 90.01 50.051L94.364 54.602C95.058 55.327 95.061 56.471 94.37 57.201L90.073 61.735C89.702 62.128 89.203 62.324 88.704 62.324" data-fill-palette-color="accent"></path></g><g fill="#8f6449" data-fill-palette-color="accent"><path fill="#8f6449" d="M44.114 69.901H20.016A1.884 1.884 0 1 1 20.016 66.132H44.114A1.885 1.885 0 1 1 44.114 69.901" data-fill-palette-color="accent"></path></g><g fill="#8f6449" data-fill-palette-color="accent"><path fill="#8f6449" d="M82.701 69.895H52.978A1.885 1.885 0 1 1 52.978 66.125H82.702A1.885 1.885 0 1 1 82.701 69.895" data-fill-palette-color="accent"></path></g><g fill="#8f6449" data-fill-palette-color="accent"><path fill="#8f6449" d="M65.816 81.679H20.016A1.886 1.886 0 0 1 20.016 77.907H65.817A1.885 1.885 0 1 1 65.816 81.679" data-fill-palette-color="accent"></path></g></svg></g></svg></g></svg></g><defs></defs></svg><rect width="395.52" height="120.88130418502762" fill="none" stroke="none" visibility="hidden"></rect></g></svg></g></svg>